<svg id="Capa_1" enable-background="new 0 0 512 512" height="512" viewBox="0 0 512 512" width="512" xmlns="http://www.w3.org/2000/svg"><g><g><path d="m395.509 504.5h-348.037c-7.478 0-13.54-6.062-13.54-13.54v-348.038c0-7.476 6.061-13.537 13.537-13.537h348.041c7.476 0 13.537 6.061 13.537 13.537v348.041c0 7.476-6.061 13.537-13.538 13.537z" fill="#eab14d"/><path d="m395.509 129.385h-28.346c7.476 0 13.537 6.061 13.537 13.537v348.041c0 7.477-6.061 13.537-13.537 13.537h28.346c7.477 0 13.537-6.061 13.537-13.537v-348.041c.001-7.476-6.06-13.537-13.537-13.537z" fill="#fdb441"/><path d="m409.047 439.822v-296.9c0-7.476-6.061-13.537-13.537-13.537h-342.279v341.441c0 7.478 6.062 13.54 13.54 13.54h342.276z" fill="#e7a52e"/><path d="m448.189 400.68v-297.734c0-7.476-6.061-13.537-13.537-13.537h-348.041c-7.476 0-13.537 6.061-13.537 13.537v348.038c0 7.478 6.062 13.54 13.54 13.54h297.732z" fill="#f6e266"/><path d="m434.651 89.408h-28.347c7.477 0 13.537 6.061 13.537 13.537v297.735 28.346l28.346-28.346v-297.734c.001-7.477-6.059-13.538-13.536-13.538z" fill="#ffd064"/><path d="m448.189 400.68-63.844 63.844v-50.306c0-7.476 6.061-13.537 13.537-13.537h50.307z" fill="#ecbe6b"/><circle cx="401.866" cy="83.703" fill="#407093" r="76.203"/></g><g><path d="m474.456 42.001c-2.066-3.589-6.65-4.825-10.242-2.758-3.589 2.066-4.824 6.652-2.758 10.242 5.962 10.357 9.113 22.189 9.113 34.218 0 37.947-30.888 68.703-68.702 68.703-37.427 0-68.703-30.618-68.703-68.703 0-37.883 30.82-68.703 68.703-68.703 13.695 0 26.917 4.016 38.237 11.614 3.44 2.309 8.099 1.393 10.407-2.047 2.309-3.439 1.392-8.099-2.048-10.407-13.8-9.264-29.913-14.16-46.596-14.16-45.552 0-82.696 36.582-83.658 81.908h-231.598c-11.6 0-21.037 9.438-21.037 21.038v18.939h-18.106c-11.6 0-21.037 9.437-21.037 21.037v267.514c0 4.142 3.357 7.5 7.5 7.5s7.5-3.358 7.5-7.5v-267.514c0-3.329 2.708-6.037 6.037-6.037h18.105v314.102c0 11.6 9.438 21.037 21.037 21.037h297.734c1.942 0 3.87-.765 5.304-2.197l11.897-11.897v33.033c0 3.329-2.708 6.038-6.037 6.038h-348.037c-3.33 0-6.04-2.709-6.04-6.04v-45.524c0-4.142-3.357-7.5-7.5-7.5s-7.5 3.358-7.5 7.5v45.524c0 11.602 9.438 21.04 21.04 21.04h348.038c11.6 0 21.037-9.438 21.037-21.038v-48.033l36.946-36.946c1.325-1.325 2.196-3.246 2.196-5.303v-252.942c18.253-15.367 29.88-38.364 29.88-64.036.001-14.652-3.842-29.072-11.112-41.702zm-82.611 404.416v-32.199c0-3.329 2.708-6.037 6.037-6.037h32.2c-14.813 14.812-31.769 31.767-38.237 38.236zm48.844-53.237h-42.807c-11.6 0-21.037 9.437-21.037 21.037v42.806c-6.539 0-281.772 0-290.234 0-3.329 0-6.037-2.708-6.037-6.037v-321.601-26.439c0-3.329 2.708-6.038 6.037-6.038h232.604c6.405 40.24 41.269 70.497 82.652 70.497 13.111 0 26.479-3.029 38.822-9.528z"/><path d="m388.131 202.788h-255c-4.143 0-7.5 3.358-7.5 7.5s3.357 7.5 7.5 7.5h255c4.143 0 7.5-3.358 7.5-7.5s-3.357-7.5-7.5-7.5z"/><path d="m388.131 270.78h-255c-4.143 0-7.5 3.358-7.5 7.5s3.357 7.5 7.5 7.5h255c4.143 0 7.5-3.358 7.5-7.5s-3.357-7.5-7.5-7.5z"/><path d="m401.867 132.953c4.143 0 7.5-3.358 7.5-7.5v-34.25h34.25c4.143 0 7.5-3.358 7.5-7.5s-3.357-7.5-7.5-7.5h-34.25v-34.25c0-4.142-3.357-7.5-7.5-7.5s-7.5 3.358-7.5 7.5v34.25h-34.25c-4.143 0-7.5 3.358-7.5 7.5s3.357 7.5 7.5 7.5h34.25v34.25c0 4.142 3.357 7.5 7.5 7.5z"/><path d="m388.131 338.771h-255c-4.143 0-7.5 3.358-7.5 7.5s3.357 7.5 7.5 7.5h255c4.143 0 7.5-3.358 7.5-7.5s-3.357-7.5-7.5-7.5z"/></g></g></svg>