<?xml version="1.0" standalone="no"?>
<!DOCTYPE svg PUBLIC "-//W3C//DTD SVG 20010904//EN"
 "http://www.w3.org/TR/2001/REC-SVG-20010904/DTD/svg10.dtd">
<svg version="1.0" xmlns="http://www.w3.org/2000/svg"
 width="397.000000pt" height="397.000000pt" viewBox="0 0 397.000000 397.000000"
 preserveAspectRatio="xMidYMid meet">

<g transform="translate(0.000000,397.000000) scale(0.100000,-0.100000)"
fill="#000000" stroke="none">
<path d="M1810 3929 c-22 -8 -22 -8 7 -4 19 2 34 -1 37 -8 2 -7 5 -4 5 6 1 18
-10 20 -49 6z"/>
<path d="M1881 3927 c-1 -10 -11 -21 -23 -26 -32 -12 -88 -2 -88 15 0 8 -8 14
-17 14 -13 0 -15 -2 -5 -8 7 -5 10 -16 6 -25 -7 -19 -13 -21 -34 -7 -9 6 -19
5 -28 -2 -7 -6 -29 -11 -49 -10 -39 2 -209 -39 -274 -64 -21 -9 -51 -14 -66
-10 -16 3 -22 3 -15 0 6 -3 12 -9 12 -13 0 -4 -6 -8 -12 -9 -7 0 -24 -3 -38
-7 l-25 -6 25 15 c14 8 21 15 15 15 -14 0 -62 -28 -50 -29 6 0 2 -5 -8 -11 -9
-5 -22 -7 -29 -3 -7 4 -8 3 -4 -4 4 -8 -3 -16 -19 -22 -37 -14 -44 -12 -15 5
30 17 18 20 -13 4 -33 -17 -54 -43 -50 -59 4 -13 3 -13 -6 0 -10 13 -16 10
-40 -16 -25 -27 -29 -29 -40 -15 -6 9 -9 10 -6 4 3 -7 1 -13 -5 -13 -16 0
-170 -101 -170 -112 0 -4 -6 -8 -13 -8 -16 0 -123 -98 -120 -110 2 -5 -4 -7
-11 -4 -15 6 -226 -221 -226 -243 0 -6 -8 -17 -17 -22 -16 -9 -16 -10 4 -11
22 0 40 -17 29 -27 -4 -4 -12 -1 -18 5 -7 7 -17 12 -24 12 -18 0 -91 -103 -76
-108 7 -2 10 -8 6 -13 -3 -5 1 -16 9 -24 13 -12 19 -7 52 40 20 30 42 52 48
48 6 -4 7 -1 2 6 -4 8 6 29 26 54 18 22 27 37 20 33 -8 -6 -11 -2 -9 10 2 12
-2 18 -10 16 -8 -1 -11 2 -7 7 3 6 15 7 29 1 20 -7 34 3 127 98 100 103 94
102 -21 -3 -39 -36 -34 -28 20 28 41 43 75 81 75 85 0 4 5 7 12 7 6 0 22 10
35 21 39 35 86 65 176 111 112 58 202 112 202 122 0 4 12 13 26 19 14 7 23 8
19 2 -3 -5 -2 -10 4 -10 5 0 12 4 16 9 3 5 19 12 35 16 16 4 28 12 27 18 -1 6
9 12 23 12 35 2 110 27 110 36 0 4 17 9 37 11 33 3 39 7 44 33 l7 30 1 -28 c0
-16 5 -26 10 -23 5 3 39 10 76 15 76 11 95 22 76 45 -8 9 -8 16 -2 20 5 4 14
-2 20 -11 8 -15 24 -18 86 -19 42 0 87 5 100 12 13 7 28 8 36 3 25 -16 69 -11
69 9 1 16 2 16 15 -2 20 -26 82 -15 88 17 l4 22 2 -22 c0 -13 5 -23 10 -23 5
0 17 -3 26 -6 12 -5 16 -2 13 11 -2 13 5 21 22 26 23 6 23 7 3 8 -12 1 -24 5
-28 11 -3 5 -44 9 -90 8 -64 -1 -85 -5 -85 -15 0 -15 -34 15 -43 38 -4 10 -6
9 -6 -4z m-301 -98 c0 -5 -7 -9 -15 -9 -15 0 -20 12 -9 23 8 8 24 -1 24 -14z
m27 -1 c-3 -8 -6 -5 -6 6 -1 11 2 17 5 13 3 -3 4 -12 1 -19z m-310 -80 c-3 -8
-6 -5 -6 6 -1 11 2 17 5 13 3 -3 4 -12 1 -19z m-437 -218 c0 -5 -4 -10 -10
-10 -5 0 -10 5 -10 10 0 6 5 10 10 10 6 0 10 -4 10 -10z m-60 -30 c0 -5 -5
-10 -11 -10 -5 0 -7 5 -4 10 3 6 8 10 11 10 2 0 4 -4 4 -10z m-249 -283 c-7
-7 -14 -8 -21 -1 -6 6 -2 10 12 11 16 2 18 -1 9 -10z m-121 -145 c0 -15 -28
-47 -36 -40 -4 4 -1 15 7 25 9 11 10 14 2 9 -7 -4 -13 -2 -13 3 0 6 9 11 20
11 11 0 20 -4 20 -8z m-50 -76 c0 -3 -4 -8 -10 -11 -5 -3 -10 -1 -10 4 0 6 5
11 10 11 6 0 10 -2 10 -4z"/>
<path d="M1918 3933 c6 -2 18 -2 25 0 6 3 1 5 -13 5 -14 0 -19 -2 -12 -5z"/>
<path d="M1970 3936 c0 -8 61 -12 66 -4 3 4 -11 8 -30 8 -20 0 -36 -2 -36 -4z"/>
<path d="M2095 3933 c22 -3 46 -10 54 -16 11 -10 13 -9 9 3 -3 10 -20 15 -54
16 -41 1 -43 1 -9 -3z"/>
<path d="M2228 3923 c6 -2 18 -2 25 0 6 3 1 5 -13 5 -14 0 -19 -2 -12 -5z"/>
<path d="M2335 3905 c33 -7 76 -16 95 -20 19 -5 32 -4 28 0 -10 11 -118 35
-153 34 -20 -1 -11 -6 30 -14z"/>
<path d="M1537 3888 c-103 -27 -93 -34 14 -9 46 11 98 22 114 24 24 3 22 4
-10 5 -22 0 -75 -9 -118 -20z"/>
<path d="M2183 3888 c-12 -6 -23 -19 -26 -29 -3 -11 -13 -20 -24 -20 -10 -1
-2 -4 17 -8 19 -3 56 -4 81 -1 36 5 52 2 69 -12 15 -12 39 -18 71 -18 26 0 51
-5 55 -11 3 -6 15 -9 25 -6 10 3 22 1 25 -4 11 -18 26 -8 22 15 -4 18 -1 23 9
19 9 -4 12 -14 9 -28 -5 -21 1 -25 75 -49 44 -14 85 -26 90 -26 5 0 28 -12 50
-27 34 -22 42 -24 51 -12 8 12 9 11 5 -2 -6 -18 29 -39 63 -39 10 0 24 -8 29
-17 10 -17 12 -17 26 1 15 20 14 21 29 -27 2 -7 52 -46 110 -85 58 -40 102
-65 99 -55 -4 11 -3 14 5 9 7 -4 12 -15 12 -25 0 -19 23 -45 32 -36 3 3 13 -6
22 -19 10 -16 22 -23 31 -20 10 4 15 0 15 -14 0 -11 7 -25 15 -32 10 -9 15 -9
15 -1 0 23 19 10 22 -16 2 -14 9 -28 16 -31 7 -2 11 2 10 9 -2 7 7 13 20 13
12 0 21 -2 20 -5 -2 -3 3 -14 11 -23 14 -16 15 -16 24 0 7 13 6 19 -3 22 -8 3
-23 15 -35 28 -12 13 -27 24 -32 24 -6 0 -17 10 -26 23 -23 34 -72 81 -102 97
-15 8 -44 30 -64 50 -57 53 -118 100 -132 100 -7 0 -21 8 -31 17 -15 14 -21
14 -27 4 -6 -9 -10 -7 -14 9 -3 12 -10 19 -16 16 -5 -3 -16 1 -25 10 -9 8 -20
12 -26 9 -5 -3 -10 1 -10 10 0 11 -6 15 -17 11 -13 -4 -23 3 -35 25 -10 17
-22 28 -28 24 -5 -3 -19 -1 -30 5 -14 8 -20 8 -20 -1 0 -6 -14 1 -30 15 -40
33 -98 50 -119 33 -12 -9 -13 -9 -7 1 5 8 -8 19 -41 34 -56 26 -68 27 -68 11
0 -7 -4 -13 -10 -13 -5 0 -10 8 -10 18 0 14 -15 19 -80 29 -44 6 -93 16 -108
22 -37 14 -37 14 -37 -7 0 -10 -7 -19 -15 -19 -11 0 -12 4 -4 13 14 17 -1 24
-28 12z m193 -63 c1 -8 -2 -15 -7 -15 -5 0 -9 10 -9 22 0 23 12 17 16 -7z m59
4 c4 -11 4 -23 1 -27 -10 -9 -39 25 -32 37 11 17 24 13 31 -10z m215 -79 c0
-11 -4 -20 -10 -20 -5 0 -10 9 -10 20 0 11 5 20 10 20 6 0 10 -9 10 -20z m134
-52 c-3 -5 -12 -4 -20 3 -7 6 -11 15 -8 21 3 5 12 4 20 -3 7 -6 11 -15 8 -21z
m231 -117 c3 -5 1 -12 -5 -16 -5 -3 -10 1 -10 9 0 18 6 21 15 7z m95 -104 c0
-5 -4 -5 -10 -2 -5 3 -10 14 -10 23 0 15 2 15 10 2 5 -8 10 -19 10 -23z"/>
<path d="M2530 3861 c30 -11 63 -25 73 -31 12 -7 17 -7 17 0 0 14 -53 36 -105
45 -36 5 -35 4 15 -14z"/>
<path d="M2655 3823 c6 -5 26 -16 45 -23 19 -7 41 -20 49 -29 10 -12 12 -13 9
-2 -2 8 -15 23 -29 32 -26 20 -91 38 -74 22z"/>
<path d="M2780 3771 c0 -5 12 -11 27 -14 26 -5 26 -4 8 9 -22 16 -35 18 -35 5z"/>
<path d="M2853 3726 c7 -13 15 -22 19 -20 10 6 -9 44 -21 44 -5 0 -4 -11 2
-24z"/>
<path d="M2896 3705 c4 -8 8 -15 10 -15 2 0 4 7 4 15 0 8 -4 15 -10 15 -5 0
-7 -7 -4 -15z"/>
<path d="M1927 3697 c3 -5 13 -7 23 -4 20 5 48 -8 37 -19 -11 -11 -161 -6
-165 5 -2 6 -8 11 -13 11 -6 0 -8 -4 -5 -9 8 -12 -4 -41 -16 -41 -5 0 -6 5 -3
10 3 6 -4 10 -16 10 -12 0 -27 7 -33 15 -8 10 -15 12 -26 5 -13 -8 -13 -10 2
-10 11 0 15 -6 11 -20 -6 -22 -14 -25 -28 -11 -6 6 -26 6 -54 0 -30 -7 -48 -6
-55 1 -5 5 -17 10 -26 10 -10 0 -11 -3 -3 -8 16 -10 28 -62 14 -62 -6 0 -11 7
-11 15 0 14 -13 20 -34 16 -5 -1 -12 3 -16 10 -6 9 -15 9 -36 0 l-29 -11 29 5
c23 5 27 3 22 -10 -3 -9 -6 -18 -6 -19 0 -1 -16 0 -35 2 -19 2 -32 8 -29 13 3
5 -2 6 -10 3 -9 -3 -14 -10 -11 -14 3 -4 -11 -11 -31 -15 -31 -5 -35 -9 -30
-30 8 -33 -20 -41 -46 -13 -11 13 -16 17 -12 9 5 -11 3 -13 -9 -8 -10 3 -17 2
-17 -3 0 -6 -9 -10 -20 -10 -13 0 -22 -9 -26 -25 -6 -25 -24 -35 -24 -14 0 8
-4 9 -13 0 -8 -6 -18 -7 -23 -3 -4 4 -2 -2 6 -12 9 -11 10 -17 3 -13 -18 11
-63 -3 -63 -20 0 -9 -6 -13 -15 -9 -9 3 -21 -4 -31 -20 -10 -14 -23 -23 -31
-20 -8 3 -18 -4 -25 -19 -6 -14 -15 -25 -20 -25 -5 0 -6 6 -2 13 5 7 -2 6 -16
-4 -14 -9 -29 -26 -35 -37 -5 -12 -16 -21 -24 -19 -8 1 -20 -8 -26 -20 -16
-31 -46 -63 -58 -63 -6 0 0 12 14 28 l24 27 -27 -24 c-16 -14 -26 -26 -23 -29
6 -6 -21 -32 -35 -32 -6 0 -9 -4 -6 -9 3 -4 -6 -19 -21 -32 -14 -13 -23 -17
-18 -9 4 8 -4 4 -18 -10 -13 -14 -24 -27 -24 -30 1 -3 -2 -15 -7 -27 -9 -27
-28 -32 -20 -5 4 13 2 12 -7 -3 -7 -11 -14 -27 -16 -35 -1 -8 -9 -20 -17 -26
-9 -6 -13 -14 -9 -17 3 -4 1 -7 -6 -7 -7 0 -11 -7 -8 -14 4 -9 -2 -17 -14 -21
-10 -4 -19 -13 -19 -21 0 -7 -9 -19 -20 -26 -11 -7 -20 -18 -20 -25 0 -7 -24
-61 -54 -120 -30 -60 -64 -137 -77 -173 -25 -72 -37 -92 -50 -84 -5 3 -9 1 -9
-5 0 -5 5 -11 12 -13 9 -3 6 -27 -10 -92 -24 -95 -27 -132 -12 -141 12 -8 22
31 18 75 -2 26 1 35 12 35 11 0 15 -11 15 -37 0 -20 3 -34 7 -31 13 7 9 71 -4
75 -13 5 10 101 43 177 10 24 19 56 19 72 0 16 5 28 10 27 12 -3 62 108 62
134 -1 10 3 17 8 15 5 -1 29 28 54 65 73 109 204 264 285 340 141 130 371 272
531 326 48 17 55 22 53 43 -3 24 -3 24 7 2 8 -20 12 -21 40 -12 16 6 30 14 30
19 0 4 11 5 24 3 13 -3 34 1 47 8 13 7 34 12 47 10 18 -2 22 3 23 26 1 23 2
24 7 8 9 -28 68 -28 88 -1 12 18 19 15 15 -6 -2 -15 47 -8 63 8 9 8 16 11 16
5 0 -6 14 -11 31 -11 20 0 28 4 23 12 -5 8 -2 9 12 3 32 -14 174 -15 174 -2 0
7 5 6 11 -3 9 -12 10 -11 6 8 -3 12 -1 22 4 22 5 0 9 -8 9 -18 0 -22 78 -44
104 -30 9 5 22 6 29 1 24 -15 82 -33 112 -33 17 0 41 -7 55 -15 33 -19 54 -19
47 0 -4 8 -2 17 2 20 5 2 12 -7 15 -21 5 -19 11 -24 26 -19 12 4 20 2 20 -5 0
-9 36 -28 65 -34 6 -1 19 -7 30 -13 11 -5 26 -8 33 -6 6 3 12 0 12 -6 0 -10
97 -61 115 -61 4 0 2 7 -5 15 -7 9 -10 19 -6 23 10 9 38 -29 32 -44 -5 -14 21
-27 36 -18 5 3 12 -4 15 -15 4 -16 11 -20 25 -15 13 4 18 2 14 -4 -6 -10 65
-73 107 -95 12 -7 84 -74 159 -149 108 -108 141 -135 157 -131 13 3 21 1 21
-7 0 -6 -9 -14 -20 -17 -11 -3 -17 -9 -14 -14 3 -5 10 -7 15 -3 5 3 18 -14 29
-38 13 -28 20 -36 20 -23 l1 20 8 -20 c5 -11 4 -22 -1 -23 -11 -5 58 -130 88
-160 13 -12 21 -28 18 -36 -3 -8 4 -31 15 -52 12 -21 21 -45 21 -52 0 -7 5
-10 10 -7 6 3 11 0 11 -7 7 -79 33 -183 53 -207 6 -8 10 -17 9 -20 -1 -3 0
-15 2 -26 2 -11 6 -63 9 -115 3 -52 8 -106 11 -120 11 -53 6 -189 -10 -285 -9
-55 -13 -117 -10 -137 5 -25 3 -38 -4 -38 -15 0 -31 -43 -33 -91 -1 -21 -5
-36 -9 -33 -4 2 -11 -10 -14 -28 -4 -18 -18 -57 -31 -87 -13 -29 -21 -58 -17
-64 3 -5 2 -7 -4 -4 -5 3 -20 -16 -33 -42 -13 -28 -33 -54 -47 -60 -31 -14
-84 -14 -104 2 -21 16 -54 81 -68 135 -16 58 -48 307 -61 477 -6 77 -18 219
-26 315 -9 96 -19 283 -24 415 -11 291 -26 363 -99 462 -50 68 -105 103 -162
103 -42 0 -55 -5 -91 -37 -51 -47 -96 -141 -138 -289 -60 -213 -115 -574 -125
-829 -4 -77 -8 -141 -9 -143 -2 -1 -9 39 -15 90 -7 51 -21 131 -31 178 -10 47
-26 136 -35 199 -20 145 -70 364 -95 416 -25 51 -113 151 -151 170 -15 8 -50
15 -76 15 -79 0 -173 -79 -239 -200 -10 -19 -19 -36 -20 -37 0 -1 -19 7 -43
19 -57 28 -129 35 -168 15 -16 -9 -41 -33 -56 -54 -35 -51 -129 -377 -133
-463 -2 -36 -15 -126 -30 -200 -20 -101 -28 -182 -33 -320 l-6 -185 -17 90
c-20 100 -48 330 -48 387 0 20 -4 39 -9 42 -7 5 -11 75 -15 300 -1 88 -1 88
-35 117 -52 43 -85 52 -113 29 -20 -16 -23 -29 -27 -107 -6 -146 -4 -229 13
-418 9 -99 18 -232 20 -295 3 -63 12 -140 20 -170 9 -30 18 -82 22 -115 3 -33
13 -82 21 -110 8 -27 18 -95 24 -151 8 -96 19 -140 104 -424 20 -69 37 -131
38 -137 0 -7 5 -13 11 -13 6 0 5 -4 -3 -9 -11 -7 -7 -13 20 -24 32 -15 33 -16
9 -18 -14 -1 0 -5 30 -8 30 -3 57 -4 60 -1 3 3 18 13 33 23 15 10 36 31 46 48
17 28 17 31 -4 107 -32 109 -80 385 -80 461 l0 64 40 14 c23 7 57 27 78 44 42
35 131 165 184 271 20 40 46 87 59 103 46 61 94 210 125 385 24 135 26 233 7
350 -7 47 -13 135 -13 195 0 106 1 113 35 180 56 110 104 131 133 57 40 -103
68 -270 92 -567 9 -104 25 -248 36 -318 11 -71 24 -188 30 -260 10 -133 40
-332 59 -397 30 -98 82 -150 151 -150 67 0 88 42 71 143 -20 115 -22 171 -12
332 6 88 13 223 16 300 3 77 12 160 20 185 7 25 23 119 34 210 55 443 133 760
185 760 8 0 15 -4 15 -9 0 -5 6 -16 14 -24 12 -11 16 -60 20 -220 3 -113 10
-261 16 -329 6 -68 15 -208 20 -313 5 -104 13 -215 19 -245 6 -30 15 -111 21
-179 16 -185 60 -301 162 -423 49 -59 168 -140 232 -158 31 -8 43 -16 34 -21
-7 -4 -15 -3 -19 2 -3 6 -49 -41 -102 -103 -53 -62 -94 -114 -93 -116 10 -9
55 12 65 31 11 20 11 20 7 -7 l-4 -29 34 39 c19 21 43 51 55 66 18 25 19 27 2
21 -16 -6 -16 -5 -4 10 7 9 10 17 5 18 -5 0 7 6 26 12 22 8 35 19 34 29 -2 17
13 26 89 53 26 9 64 33 83 53 65 67 121 222 94 262 -9 12 -20 5 -63 -42 -29
-32 -56 -58 -58 -58 -7 0 -6 43 1 50 3 3 11 17 17 33 7 15 19 27 28 27 18 0
21 30 3 31 -7 0 -4 4 8 9 22 8 23 26 9 95 -4 18 -3 25 2 18 5 -7 13 -9 19 -5
11 7 27 95 25 139 -1 27 18 41 30 22 7 -12 10 -12 21 0 10 10 10 12 1 7 -7 -4
-13 -2 -13 3 0 6 -7 11 -15 11 -17 0 -20 16 -5 25 5 3 10 16 10 28 0 12 1 98
2 190 3 140 1 169 -12 178 -11 8 -12 12 -2 16 15 6 15 28 -2 76 -8 20 -10 39
-6 42 5 3 4 21 -1 40 -6 19 -7 40 -3 47 4 6 3 8 -4 4 -7 -4 -13 11 -17 41 -10
69 -15 83 -30 83 -21 0 -27 17 -13 39 10 16 9 23 -4 38 -9 10 -18 29 -20 43
-2 18 -9 25 -24 24 -19 -1 -20 2 -13 33 6 28 3 39 -13 55 -11 11 -17 22 -14
25 7 8 -65 140 -117 216 -22 31 -55 67 -74 78 -18 11 -33 27 -33 35 0 8 -11
20 -25 26 -23 10 -31 33 -26 75 1 6 -3 14 -9 18 -5 3 -10 2 -10 -4 0 -20 -28
1 -35 26 -3 14 -9 23 -12 19 -9 -9 -43 24 -43 41 0 8 -6 13 -12 10 -7 -2 -12
-14 -10 -25 2 -12 -1 -22 -6 -22 -5 0 -13 26 -17 58 -8 61 -20 92 -36 92 -6 0
-3 -10 5 -22 9 -12 16 -30 16 -40 0 -30 -19 -30 -37 0 -10 16 -24 27 -30 25
-7 -3 -13 0 -13 5 0 11 -104 92 -119 92 -5 0 -16 6 -23 13 -8 6 -24 18 -35 24
-18 11 -24 10 -31 -3 -7 -12 -10 -11 -20 10 -7 16 -17 23 -25 20 -8 -3 -17 1
-20 9 -3 8 -26 23 -52 32 -36 14 -47 24 -52 46 -4 22 -14 30 -53 43 -56 18
-63 19 -56 7 3 -4 26 -14 51 -21 44 -12 51 -22 39 -54 -8 -20 -24 -21 -24 -2
0 8 -10 18 -22 21 -13 4 -36 22 -53 41 -16 19 -46 38 -65 44 -32 9 -33 8 -16
-5 11 -8 28 -15 37 -15 21 0 38 -22 21 -28 -7 -2 -12 -10 -12 -18 0 -8 -5 -14
-11 -14 -5 0 -8 4 -4 10 9 15 -42 43 -70 38 -21 -4 -25 -1 -25 18 0 32 -22 41
-120 47 -76 5 -79 4 -30 -4 30 -6 73 -13 94 -17 42 -7 51 -18 36 -42 -8 -13
-11 -13 -22 2 -8 11 -31 19 -58 22 -25 2 -66 7 -92 11 -32 5 -52 4 -62 -4 -10
-8 -16 -9 -21 -1 -3 5 -15 10 -26 10 -10 0 -19 7 -19 15 0 8 -6 16 -12 17 -40
5 -66 3 -61 -5z m-301 -104 c-11 -11 -19 6 -11 24 8 17 8 17 12 0 3 -10 2 -21
-1 -24z m715 0 c13 -16 12 -17 -3 -4 -10 7 -18 15 -18 17 0 8 8 3 21 -13z
m-1441 -317 c0 -3 -4 -8 -10 -11 -5 -3 -10 -1 -10 4 0 6 5 11 10 11 6 0 10 -2
10 -4z m2230 -82 c0 -8 -4 -14 -10 -14 -5 0 -10 9 -10 21 0 11 5 17 10 14 6
-3 10 -13 10 -21z m63 -51 c-7 -17 -18 -16 -33 2 -11 13 -9 15 13 13 16 -1 23
-7 20 -15z m-269 -363 c19 -125 28 -314 18 -420 -6 -75 -8 -54 -20 190 -7 151
-16 289 -19 305 -3 17 -3 28 0 25 4 -4 13 -49 21 -100z m-1210 -392 c49 -102
59 -166 53 -358 -4 -138 -10 -201 -31 -300 -15 -69 -31 -129 -36 -134 -5 -5
-6 -15 -3 -22 3 -8 0 -14 -6 -14 -6 0 -10 -3 -10 -7 4 -25 -2 -43 -13 -37 -7
5 -8 3 -3 -6 9 -15 -67 -169 -104 -207 -14 -16 -38 -43 -53 -61 l-27 -33 -6
45 c-4 25 -5 146 -2 268 4 201 8 244 41 428 51 284 72 374 100 436 20 44 29
54 50 54 20 0 29 -10 50 -52z m-1357 20 c-3 -8 -6 -5 -6 6 -1 11 2 17 5 13 3
-3 4 -12 1 -19z m3242 10 c0 -7 -4 -22 -8 -32 -10 -25 -22 -6 -14 22 6 23 23
31 22 10z m-1292 -715 c-3 -10 -5 -2 -5 17 0 19 2 27 5 18 2 -10 2 -26 0 -35z
m39 -342 c13 -101 30 -167 59 -235 6 -14 5 -17 -3 -12 -34 20 -81 266 -87 446
l-4 125 10 -105 c5 -58 16 -156 25 -219z m-1022 -660 c-5 -6 -33 101 -44 169
-21 139 -7 127 20 -15 15 -82 26 -152 24 -154z m1967 199 c-4 -3 -10 -13 -14
-22 -3 -10 -11 -18 -16 -18 -6 0 -3 15 7 34 10 20 20 29 24 23 4 -6 3 -14 -1
-17z m-1902 -390 l-1 -25 -8 25 c-4 14 -8 32 -9 40 -1 13 0 13 9 0 5 -8 9 -26
9 -40z"/>
<path d="M2034 3701 c7 -11 56 -21 56 -11 0 9 -25 20 -46 20 -9 0 -13 -4 -10
-9z"/>
<path d="M1770 3690 c-13 -8 -12 -10 3 -10 9 0 17 5 17 10 0 12 -1 12 -20 0z"/>
<path d="M1863 3693 c9 -2 25 -2 35 0 9 3 1 5 -18 5 -19 0 -27 -2 -17 -5z"/>
<path d="M2930 3688 c0 -12 7 -18 23 -17 15 0 17 2 7 6 -8 3 -18 11 -22 17 -5
7 -8 4 -8 -6z"/>
<path d="M2981 3664 c0 -11 3 -14 6 -6 3 7 2 16 -1 19 -3 4 -6 -2 -5 -13z"/>
<path d="M1626 3661 c-3 -4 6 -6 19 -3 14 2 25 6 25 8 0 8 -39 4 -44 -5z"/>
<path d="M3015 3640 c10 -11 20 -18 23 -15 7 6 -18 35 -31 35 -5 0 -2 -9 8
-20z"/>
<path d="M3050 3626 c0 -2 24 -21 53 -42 28 -20 67 -49 86 -63 21 -16 31 -20
25 -10 -22 39 -164 138 -164 115z"/>
<path d="M2652 3566 c26 -12 54 -28 62 -36 13 -10 16 -10 16 2 0 9 -22 25 -51
37 -68 28 -87 26 -27 -3z"/>
<path d="M2757 3509 c4 -13 8 -18 11 -10 2 7 -1 18 -6 23 -8 8 -9 4 -5 -13z"/>
<path d="M2804 3493 c2 -5 30 -21 60 -37 31 -17 75 -45 96 -64 22 -18 40 -29
40 -24 0 14 -49 54 -118 96 -56 34 -89 46 -78 29z"/>
<path d="M3231 3488 c3 -2 44 -41 92 -88 57 -56 87 -79 87 -67 0 10 -11 23
-25 29 -14 6 -25 16 -25 23 0 14 -104 105 -121 105 -7 0 -10 -1 -8 -2z"/>
<path d="M3070 3324 c0 -5 7 -18 15 -28 12 -16 15 -17 15 -4 0 8 -7 21 -15 28
-8 7 -15 9 -15 4z"/>
<path d="M3436 3295 c9 -14 20 -25 25 -25 5 0 -1 11 -13 25 -12 14 -23 25 -25
25 -2 0 4 -11 13 -25z"/>
<path d="M3110 3291 c0 -5 16 -22 35 -36 19 -15 37 -36 41 -47 3 -11 8 -17 11
-15 3 3 2 14 -1 25 -7 21 -86 89 -86 73z"/>
<path d="M3350 3261 c0 -5 29 -49 65 -98 36 -48 87 -118 113 -154 41 -57 50
-65 59 -50 10 14 11 14 12 -4 1 -40 9 -71 34 -120 14 -28 31 -64 37 -80 9 -23
13 -26 20 -15 5 8 6 18 4 22 -3 4 -1 8 4 8 6 0 8 -18 5 -41 -5 -32 -3 -41 7
-37 8 2 16 10 18 18 3 8 0 10 -9 5 -8 -5 -11 -4 -6 1 14 15 31 10 55 -15 18
-19 22 -21 22 -7 0 9 -7 19 -15 22 -8 4 -12 11 -8 17 3 6 1 7 -5 3 -7 -4 -12
-2 -12 4 0 6 -5 8 -11 5 -6 -4 -9 -1 -8 6 1 8 -1 26 -4 42 -4 15 -9 38 -12 52
-3 15 -10 23 -16 19 -6 -3 -8 -17 -4 -31 4 -16 2 -22 -5 -18 -5 3 -10 18 -10
33 0 47 -4 72 -11 72 -9 0 -23 -32 -20 -45 1 -5 -3 -5 -9 1 -9 9 -9 17 -1 32
6 11 11 31 11 44 l0 23 -21 -25 -20 -25 5 36 c5 26 2 40 -9 49 -8 7 -15 9 -16
4 -1 -11 -28 79 -37 121 l-6 30 -6 -30 c-3 -16 -3 -42 1 -57 6 -21 4 -28 -7
-28 -8 0 -12 5 -9 10 3 6 1 10 -6 10 -8 0 -10 15 -6 48 3 26 3 39 1 30 -3 -10
-9 -18 -14 -18 -5 0 -7 -7 -4 -15 4 -8 1 -15 -5 -15 -14 0 -15 37 -1 45 15 9
12 45 -2 40 -7 -2 -25 12 -40 32 -23 30 -29 33 -34 18 -4 -9 -2 -20 3 -24 6
-3 14 -16 17 -29 6 -17 13 -21 27 -17 19 6 27 -9 10 -20 -13 -7 -81 61 -81 81
0 8 -7 17 -15 20 -8 4 -12 10 -9 15 3 5 0 9 -5 9 -6 0 -11 -4 -11 -9z"/>
<path d="M3478 3243 c12 -8 22 -21 22 -27 0 -6 9 -17 20 -24 13 -7 20 -8 20
-2 0 6 -7 13 -15 16 -8 4 -15 12 -15 20 0 7 -9 18 -19 24 -30 15 -39 11 -13
-7z"/>
<path d="M3230 3171 c14 -27 13 -64 -1 -55 -7 4 -10 1 -7 -6 8 -26 24 -20 26
11 3 38 -6 69 -19 69 -6 0 -6 -7 1 -19z"/>
<path d="M3260 3136 c0 -2 7 -7 16 -10 8 -3 12 -2 9 4 -6 10 -25 14 -25 6z"/>
<path d="M3580 3125 c0 -6 7 -19 15 -29 8 -11 15 -30 15 -43 0 -13 4 -23 9
-23 13 0 -5 70 -23 89 -9 8 -16 11 -16 6z"/>
<path d="M3283 3096 c4 -10 7 -22 7 -27 0 -5 6 -9 14 -9 20 0 88 -77 129 -148
20 -35 37 -66 37 -71 0 -4 12 -23 26 -42 14 -19 32 -49 40 -68 8 -19 17 -32
20 -29 8 8 -36 91 -52 101 -8 4 -14 16 -14 25 0 45 -145 242 -177 242 -7 0
-13 6 -13 14 0 8 -5 18 -12 22 -8 5 -9 2 -5 -10z"/>
<path d="M3640 3033 c0 -5 5 -15 10 -23 8 -12 10 -11 10 8 0 12 -4 22 -10 22
-5 0 -10 -3 -10 -7z"/>
<path d="M268 2917 c-85 -148 -172 -366 -154 -384 3 -4 6 -1 6 5 0 7 4 12 9
12 4 0 6 -11 4 -24 -6 -27 15 -45 28 -25 4 7 5 32 2 55 -4 32 1 55 21 99 30
67 29 62 14 68 -7 2 -6 3 4 2 11 -2 24 14 41 54 14 31 32 72 41 91 8 19 25 47
37 62 19 23 20 28 7 46 -13 19 -16 16 -60 -61z m-42 -153 c-4 -9 -9 -15 -11
-12 -3 3 -3 13 1 22 4 9 9 15 11 12 3 -3 3 -13 -1 -22z"/>
<path d="M3670 2981 c0 -5 5 -13 10 -16 6 -3 10 -2 10 4 0 5 -4 13 -10 16 -5
3 -10 2 -10 -4z"/>
<path d="M3705 2911 c8 -17 19 -32 25 -36 5 -3 14 -24 20 -45 6 -22 15 -40 20
-40 6 0 10 3 10 6 0 14 -73 144 -81 144 -5 0 -3 -13 6 -29z"/>
<path d="M536 2903 c-6 -14 -5 -15 5 -6 7 7 10 15 7 18 -3 3 -9 -2 -12 -12z"/>
<path d="M284 2836 c-40 -88 -45 -113 -7 -41 34 66 55 115 47 115 -3 0 -21
-33 -40 -74z"/>
<path d="M3540 2674 c0 -10 5 -26 10 -34 8 -11 9 -7 4 15 -8 37 -14 45 -14 19z"/>
<path d="M3820 2680 c0 -8 5 -22 10 -30 9 -13 10 -13 10 0 0 8 -5 22 -10 30
-9 13 -10 13 -10 0z"/>
<path d="M3710 2670 c0 -21 30 -81 37 -77 5 3 9 -16 10 -41 1 -25 6 -48 11
-51 5 -3 15 -37 23 -76 l14 -70 5 50 c3 28 1 59 -4 70 -12 24 -18 63 -20 128
-1 43 -5 52 -22 45 -3 -2 -10 5 -15 15 -11 18 -39 24 -39 7z m45 -49 c-3 -6
-11 -8 -17 -5 -6 4 -5 9 3 15 16 10 23 4 14 -10z"/>
<path d="M3570 2653 c0 -4 5 -15 10 -23 8 -13 10 -13 10 2 0 9 -4 20 -10 23
-5 3 -10 3 -10 -2z"/>
<path d="M3804 2626 c4 -17 3 -25 -3 -22 -5 3 -7 -3 -4 -14 3 -11 10 -20 15
-20 5 0 8 -8 7 -17 -3 -22 10 -63 20 -63 4 0 8 7 8 15 0 8 -4 15 -9 15 -5 0
-8 6 -7 13 4 23 -13 107 -24 114 -6 4 -8 -4 -3 -21z"/>
<path d="M3580 2606 c0 -5 6 -17 14 -25 7 -9 18 -29 25 -46 l11 -30 -6 35 c-5
31 -44 89 -44 66z"/>
<path d="M416 2484 c-10 -31 -16 -58 -14 -60 3 -2 12 21 22 52 10 31 16 58 14
60 -3 2 -12 -21 -22 -52z"/>
<path d="M3586 2504 c-8 -21 -4 -25 14 -14 11 7 12 12 4 20 -8 8 -13 7 -18 -6z"/>
<path d="M86 2492 c-3 -6 0 -17 8 -25 8 -8 13 -17 11 -21 -3 -3 0 -2 6 3 8 7
7 15 -4 31 -8 12 -18 17 -21 12z"/>
<path d="M3630 2492 c0 -20 29 -146 39 -172 18 -45 12 6 -10 93 -20 78 -29
103 -29 79z"/>
<path d="M135 2470 c-3 -5 -1 -18 4 -27 9 -16 10 -14 11 10 0 28 -5 34 -15 17z"/>
<path d="M3844 2425 c3 -22 6 -91 6 -152 0 -69 4 -113 10 -113 6 0 10 11 10
24 0 21 4 24 25 20 25 -4 25 -4 11 18 -8 13 -18 47 -22 75 -3 29 -9 51 -13 49
-4 -3 -8 16 -9 40 -1 25 -6 53 -12 62 -9 13 -10 8 -6 -23z m23 -137 c-3 -8 -6
-5 -6 6 -1 11 2 17 5 13 3 -3 4 -12 1 -19z"/>
<path d="M92 2411 c13 -21 28 -19 28 5 0 8 -9 14 -20 14 -17 0 -19 -3 -8 -19z"/>
<path d="M3904 2390 c15 -109 19 -130 26 -130 8 0 -8 115 -21 144 -7 16 -8 13
-5 -14z"/>
<path d="M60 2394 c0 -21 18 -54 30 -54 6 0 10 9 10 20 0 11 -4 20 -10 20 -5
0 -10 7 -10 15 0 8 -4 15 -10 15 -5 0 -10 -7 -10 -16z"/>
<path d="M50 2340 c0 -5 5 -10 10 -10 6 0 10 5 10 10 0 6 -4 10 -10 10 -5 0
-10 -4 -10 -10z"/>
<path d="M51 2286 c-11 -13 -11 -17 3 -22 9 -3 16 -13 16 -22 0 -8 -3 -13 -6
-9 -6 5 -34 -16 -34 -25 0 -2 9 -4 20 -4 25 0 34 29 22 70 -7 25 -9 26 -21 12z"/>
<path d="M90 2253 c0 -7 4 -13 9 -13 5 0 11 6 14 13 3 8 -1 14 -9 14 -8 0 -14
-6 -14 -14z"/>
<path d="M3661 2265 c0 -5 6 -19 14 -29 10 -13 15 -45 16 -90 0 -39 5 -80 10
-91 6 -13 7 5 4 55 -2 41 -4 85 -5 96 0 21 -39 79 -39 59z"/>
<path d="M348 2243 c-3 -4 -2 -33 1 -63 l7 -55 6 55 c5 50 -3 85 -14 63z"/>
<path d="M294 2165 c-15 -131 -2 -435 18 -435 6 0 7 22 2 63 -9 75 -9 68 0
247 5 89 4 155 -2 170 -8 21 -11 15 -18 -45z"/>
<path d="M33 2183 c-7 -2 -13 -10 -13 -16 0 -8 3 -8 11 0 6 6 18 9 27 6 10 -4
13 -2 8 5 -8 13 -13 14 -33 5z"/>
<path d="M3895 2170 c-3 -5 -1 -10 6 -10 7 0 9 -8 6 -21 -3 -12 -3 -18 0 -15
4 3 12 1 20 -5 10 -9 13 -8 13 5 0 10 -4 14 -10 11 -5 -3 -10 3 -10 14 0 23
-16 36 -25 21z"/>
<path d="M86 2135 c4 -8 8 -15 10 -15 2 0 4 7 4 15 0 8 -4 15 -10 15 -5 0 -7
-7 -4 -15z"/>
<path d="M3855 2123 c-4 -15 -8 -36 -10 -45 -2 -10 1 -21 6 -24 5 -3 9 -11 9
-17 0 -7 -4 -6 -10 3 -7 10 -9 -17 -7 -87 2 -57 6 -106 10 -110 11 -10 8 -43
-3 -43 -5 0 -10 -14 -10 -31 0 -16 4 -28 9 -25 5 3 11 -3 14 -13 3 -12 -1 -18
-11 -17 -9 0 -18 -8 -20 -19 -2 -16 -1 -17 7 -5 10 13 11 13 11 0 0 -9 -7 -26
-16 -38 -11 -17 -14 -34 -9 -59 3 -19 3 -33 -2 -30 -4 3 -9 -13 -10 -34 -1
-22 2 -37 7 -34 10 6 7 -21 -3 -31 -4 -4 -6 -23 -6 -43 l2 -36 6 35 c4 20 12
34 19 32 7 -1 12 2 12 8 0 5 8 7 18 4 10 -4 13 -3 6 3 -15 10 -19 42 -10 68
34 88 35 95 25 95 -7 0 -7 6 2 17 10 11 10 14 2 9 -8 -4 -13 -2 -13 6 0 8 6
20 13 27 10 11 10 13 0 7 -17 -9 -16 3 2 34 18 32 18 41 0 34 -8 -4 -15 -1
-15 5 0 6 6 10 13 9 7 -2 13 10 15 30 2 23 -1 32 -12 32 -8 0 -20 10 -26 23
-10 20 -10 20 3 5 15 -20 37 -24 37 -8 0 6 -4 10 -9 10 -9 0 -7 52 3 68 2 4
-4 25 -14 47 -25 53 -25 58 5 53 14 -3 25 -1 25 3 0 5 -7 9 -16 9 -12 0 -15 6
-10 25 4 14 2 25 -4 25 -5 0 -10 9 -10 19 0 32 -19 34 -25 4z m16 -495 c2 -24
-3 -53 -10 -61 -4 -4 -8 10 -9 33 -1 22 3 40 8 40 6 0 11 -6 11 -12z m-29
-100 c-7 -7 -12 -8 -12 -2 0 14 12 26 19 19 2 -3 -1 -11 -7 -17z"/>
<path d="M47 2114 c-3 -3 -3 -12 0 -20 3 -8 -1 -14 -9 -14 -19 0 -18 -36 2
-37 11 -1 16 10 17 38 3 39 1 44 -10 33z"/>
<path d="M251 2054 c0 -11 3 -14 6 -6 3 7 2 16 -1 19 -3 4 -6 -2 -5 -13z"/>
<path d="M40 2020 c0 -5 5 -10 10 -10 6 0 10 5 10 10 0 6 -4 10 -10 10 -5 0
-10 -4 -10 -10z"/>
<path d="M254 1940 c0 -52 1 -74 3 -47 2 26 2 68 0 95 -2 26 -3 4 -3 -48z"/>
<path d="M3698 1995 c2 -14 8 -25 12 -25 4 0 5 11 2 25 -2 14 -8 25 -12 25 -4
0 -5 -11 -2 -25z"/>
<path d="M3895 2009 c-4 -6 -5 -12 -2 -15 2 -3 7 2 10 11 7 17 1 20 -8 4z"/>
<path d="M3930 1995 c0 -14 4 -25 9 -25 4 0 6 11 3 25 -2 14 -6 25 -8 25 -2 0
-4 -11 -4 -25z"/>
<path d="M343 1960 c0 -25 2 -35 4 -22 2 12 2 32 0 45 -2 12 -4 2 -4 -23z"/>
<path d="M50 1963 c0 -5 5 -15 10 -23 8 -12 10 -11 10 8 0 12 -4 22 -10 22 -5
0 -10 -3 -10 -7z"/>
<path d="M3698 1943 c-2 -4 -5 -24 -6 -43 l-1 -35 10 39 c8 36 7 59 -3 39z"/>
<path d="M22 1920 c0 -14 2 -19 5 -12 2 6 2 18 0 25 -3 6 -5 1 -5 -13z"/>
<path d="M3910 1923 c0 -4 5 -15 10 -23 8 -13 10 -13 10 2 0 9 -4 20 -10 23
-5 3 -10 3 -10 -2z"/>
<path d="M337 1865 c11 -85 23 -107 20 -37 -2 34 -9 68 -15 74 -10 10 -11 1
-5 -37z"/>
<path d="M3926 1862 c6 -4 14 -14 17 -22 4 -10 6 -8 6 8 1 15 -5 22 -16 22
-11 0 -14 -3 -7 -8z"/>
<path d="M3696 1845 c4 -8 8 -15 10 -15 2 0 4 7 4 15 0 8 -4 15 -10 15 -5 0
-7 -7 -4 -15z"/>
<path d="M3680 1781 c0 -6 5 -13 10 -16 6 -3 10 1 10 9 0 9 -4 16 -10 16 -5 0
-10 -4 -10 -9z"/>
<path d="M3670 1730 c0 -5 5 -10 11 -10 5 0 7 5 4 10 -3 6 -8 10 -11 10 -2 0
-4 -4 -4 -10z"/>
<path d="M3910 1730 c0 -5 5 -10 11 -10 5 0 7 5 4 10 -3 6 -8 10 -11 10 -2 0
-4 -4 -4 -10z"/>
<path d="M370 1656 c0 -14 4 -27 8 -30 5 -3 6 8 4 25 -5 35 -12 38 -12 5z"/>
<path d="M321 1638 c0 -7 4 -22 9 -33 7 -17 9 -15 9 13 1 17 -3 32 -9 32 -5 0
-10 -6 -9 -12z"/>
<path d="M3656 1635 c-3 -9 -6 -22 -5 -28 0 -7 5 -1 10 12 5 13 8 26 5 28 -2
2 -6 -3 -10 -12z"/>
<path d="M3912 1620 c0 -14 2 -19 5 -12 2 6 2 18 0 25 -3 6 -5 1 -5 -13z"/>
<path d="M380 1600 c0 -5 5 -10 11 -10 5 0 7 5 4 10 -3 6 -8 10 -11 10 -2 0
-4 -4 -4 -10z"/>
<path d="M390 1566 c0 -8 5 -18 10 -21 6 -3 10 1 10 9 0 8 -4 18 -10 21 -5 3
-10 -1 -10 -9z"/>
<path d="M340 1560 c0 -5 5 -10 10 -10 6 0 10 5 10 10 0 6 -4 10 -10 10 -5 0
-10 -4 -10 -10z"/>
<path d="M3892 1530 c0 -14 2 -19 5 -12 2 6 2 18 0 25 -3 6 -5 1 -5 -13z"/>
<path d="M352 1528 c2 -7 12 -39 23 -71 18 -55 18 -58 1 -70 -13 -10 -16 -20
-12 -35 8 -25 22 -28 41 -8 12 12 12 22 0 70 -17 65 -41 126 -50 126 -4 0 -5
-6 -3 -12z"/>
<path d="M3635 1530 c3 -5 8 -10 11 -10 2 0 4 5 4 10 0 6 -5 10 -11 10 -5 0
-7 -4 -4 -10z"/>
<path d="M3601 1500 c-9 -5 -4 -9 13 -12 14 -3 26 -2 26 2 0 12 -26 19 -39 10z"/>
<path d="M322 1480 c0 -14 2 -19 5 -12 2 6 2 18 0 25 -3 6 -5 1 -5 -13z"/>
<path d="M415 1490 c-3 -5 -1 -10 4 -10 6 0 11 5 11 10 0 6 -2 10 -4 10 -3 0
-8 -4 -11 -10z"/>
<path d="M430 1444 c0 -11 7 -29 16 -40 14 -18 15 -18 8 6 -3 14 -10 32 -15
40 -7 12 -8 11 -9 -6z"/>
<path d="M340 1420 c0 -11 4 -20 9 -20 5 0 7 9 4 20 -3 11 -7 20 -9 20 -2 0
-4 -9 -4 -20z"/>
<path d="M476 1330 c8 -31 24 -50 24 -29 0 8 -7 24 -16 35 -14 18 -15 18 -8
-6z"/>
<path d="M3548 1327 c-3 -19 -2 -25 4 -19 6 6 8 18 6 28 -3 14 -5 12 -10 -9z"/>
<path d="M414 1329 c-5 -8 -3 -9 6 -4 8 5 11 3 8 -6 -3 -8 6 -31 19 -51 12
-21 23 -44 23 -52 0 -8 5 -18 10 -21 6 -3 10 -13 10 -21 0 -28 -38 19 -71 87
-36 73 -51 68 -19 -6 27 -63 111 -205 122 -205 15 0 8 18 -17 48 l-24 29 24
-5 c16 -3 25 -11 25 -23 0 -10 9 -23 21 -29 12 -7 18 -18 15 -26 -3 -8 0 -14
7 -15 7 0 29 -22 50 -50 l37 -49 -25 0 c-32 0 -32 -14 2 -63 26 -38 193 -193
241 -225 13 -8 37 -28 54 -44 16 -15 34 -28 39 -28 5 0 18 -9 29 -20 11 -11
27 -20 35 -20 8 0 15 -4 15 -10 0 -9 79 -60 93 -60 17 0 4 29 -24 56 -18 17
-39 28 -51 26 -16 -3 -19 0 -13 20 4 16 3 19 -3 9 -8 -10 -13 -9 -25 9 -9 14
-22 20 -31 17 -9 -4 -25 5 -40 23 -14 17 -32 30 -40 30 -9 0 -16 4 -16 10 0 5
6 7 14 4 8 -3 23 -1 33 5 14 8 15 11 3 11 -8 1 -25 3 -37 6 -13 2 -23 -1 -23
-6 0 -6 -4 -10 -10 -10 -20 0 -9 19 18 29 27 10 27 10 2 10 -47 -2 -52 0 -45
21 4 14 2 20 -8 20 -9 0 -18 6 -20 13 -4 9 -8 9 -15 -1 -7 -11 -11 -8 -14 12
-3 14 -1 26 4 26 5 0 4 9 -2 20 -6 11 -16 20 -22 20 -6 0 -17 8 -24 17 -7 10
-16 14 -21 10 -4 -5 3 -18 17 -29 13 -11 26 -33 28 -50 l3 -29 -38 42 c-21 23
-37 48 -35 55 2 8 -3 11 -12 8 -16 -6 -51 37 -37 46 21 13 21 47 -1 66 -21 19
-21 19 -15 -1 7 -20 7 -20 -8 -1 -9 12 -11 22 -5 26 5 3 -8 24 -30 45 -22 22
-39 44 -40 49 0 4 -14 30 -31 56 -17 27 -31 51 -30 54 2 10 -58 124 -68 130
-5 4 -13 1 -17 -5z m418 -611 c-7 -7 -12 -8 -12 -2 0 14 12 26 19 19 2 -3 -1
-11 -7 -17z"/>
<path d="M3766 1324 c-3 -9 -2 -23 4 -32 9 -16 9 -16 10 0 0 9 3 23 6 32 3 9
2 16 -4 16 -5 0 -13 -7 -16 -16z"/>
<path d="M3716 1263 c-11 -32 -13 -50 -6 -58 8 -9 6 -14 -5 -19 -9 -3 -13 -2
-10 4 3 6 4 10 1 10 -2 0 -15 -21 -28 -47 -13 -27 -50 -92 -81 -146 -59 -100
-64 -113 -47 -102 6 3 10 1 10 -4 0 -6 -7 -11 -16 -11 -9 0 -18 -9 -21 -20 -3
-11 -11 -20 -19 -20 -7 0 -18 -10 -25 -21 -18 -35 -196 -232 -226 -252 -7 -4
-13 -15 -13 -23 0 -8 -4 -13 -9 -10 -4 3 -16 -3 -26 -14 -10 -11 -24 -20 -31
-20 -17 0 -23 -10 -30 -56 -3 -22 -8 -42 -11 -46 -7 -13 12 -9 25 4 7 7 12 21
12 33 0 17 2 17 10 5 9 -13 13 -12 28 5 9 12 25 24 35 28 9 3 17 13 17 22 0 8
6 15 13 15 7 0 30 18 51 39 28 29 37 45 33 60 -3 12 -1 24 4 27 5 3 9 -2 9
-10 0 -23 13 -20 44 13 22 23 28 40 30 77 0 26 6 49 11 51 11 3 12 -47 1 -65
-4 -7 -3 -12 3 -12 6 0 15 10 22 23 6 12 21 30 33 40 12 10 15 16 7 15 -8 -2
-17 5 -19 15 -4 20 24 24 31 5 8 -23 18 -1 19 43 1 24 3 36 6 27 2 -10 7 -18
11 -18 14 0 52 60 49 77 -2 10 5 19 17 22 21 6 27 20 27 58 0 19 4 21 19 12
11 -5 19 -6 18 -2 -4 18 14 94 23 100 6 3 14 -1 19 -8 7 -11 9 -11 9 3 0 9 -5
20 -10 23 -6 4 -8 9 -6 13 6 10 17 162 12 162 -2 0 -11 -21 -20 -47z m-6 -103
c0 -5 -4 -10 -10 -10 -5 0 -10 5 -10 10 0 6 5 10 10 10 6 0 10 -4 10 -10z
m-17 -35 c-3 -9 -8 -14 -10 -11 -3 3 -2 9 2 15 9 16 15 13 8 -4z m-70 -90 c-3
-9 -8 -14 -10 -11 -3 3 -2 9 2 15 9 16 15 13 8 -4z m-33 -89 c0 -11 -19 -15
-25 -6 -3 5 1 10 9 10 9 0 16 -2 16 -4z m-257 -341 c-3 -9 -8 -14 -10 -11 -3
3 -2 9 2 15 9 16 15 13 8 -4z m-50 -10 c-3 -9 -8 -14 -10 -11 -3 3 -2 9 2 15
9 16 15 13 8 -4z m14 -37 c-3 -8 -6 -5 -6 6 -1 11 2 17 5 13 3 -3 4 -12 1 -19z
m-57 -38 c0 -5 -4 -10 -10 -10 -5 0 -10 5 -10 10 0 6 5 10 10 10 6 0 10 -4 10
-10z"/>
<path d="M230 1277 c14 -12 29 -34 57 -87 7 -14 13 -20 13 -14 0 21 -51 102
-68 108 -15 5 -15 4 -2 -7z"/>
<path d="M510 1259 c0 -8 14 -37 31 -65 18 -27 35 -60 40 -74 5 -17 8 -19 8
-7 1 16 -43 109 -68 147 -9 13 -11 13 -11 -1z"/>
<path d="M3762 1240 c0 -19 2 -27 5 -17 2 9 2 25 0 35 -3 9 -5 1 -5 -18z"/>
<path d="M180 1241 c0 -5 6 -23 14 -41 9 -21 15 -28 19 -19 3 8 6 2 6 -13 1
-14 -5 -28 -11 -31 -7 -2 -1 -4 15 -4 15 0 30 3 32 8 9 14 -37 90 -51 85 -8
-3 -14 -1 -14 3 0 5 6 12 13 14 7 3 5 6 -5 6 -10 1 -18 -3 -18 -8z"/>
<path d="M3756 1175 c-3 -8 -1 -15 4 -15 6 0 10 7 10 15 0 8 -2 15 -4 15 -2 0
-6 -7 -10 -15z"/>
<path d="M292 1138 c9 -7 28 -35 42 -63 15 -30 25 -42 26 -31 0 29 -48 106
-67 106 -15 0 -15 -1 -1 -12z"/>
<path d="M210 1109 c0 -5 5 -7 10 -4 6 4 10 -7 10 -25 0 -17 6 -33 14 -36 8
-3 22 -26 31 -50 l17 -45 14 26 c20 39 18 57 -16 103 -21 30 -37 42 -55 42
-14 0 -25 -5 -25 -11z"/>
<path d="M651 1027 c24 -32 75 -90 112 -130 54 -57 47 -46 -33 50 -104 127
-157 179 -79 80z"/>
<path d="M370 1021 c0 -5 5 -13 10 -16 6 -3 10 -2 10 4 0 5 -4 13 -10 16 -5 3
-10 2 -10 -4z"/>
<path d="M540 1019 c0 -18 28 -59 41 -59 17 0 9 26 -16 50 -18 17 -25 19 -25
9z"/>
<path d="M327 990 c-3 -12 -2 -32 3 -43 8 -21 8 -21 15 5 4 15 3 34 -3 43 -8
15 -10 15 -15 -5z"/>
<path d="M421 941 c17 -31 25 -38 27 -26 2 10 -8 29 -23 44 l-28 26 24 -44z"/>
<path d="M311 934 c0 -11 3 -14 6 -6 3 7 2 16 -1 19 -3 4 -6 -2 -5 -13z"/>
<path d="M357 944 c-12 -12 -8 -26 6 -19 6 4 3 -1 -7 -9 -19 -15 -19 -18 -3
-50 21 -45 53 -46 55 -1 1 32 -37 92 -51 79z m27 -69 c-4 -8 -8 -15 -10 -15
-2 0 -4 7 -4 15 0 8 4 15 10 15 5 0 7 -7 4 -15z"/>
<path d="M686 913 c-4 -10 -4 -14 0 -10 4 4 13 2 21 -4 8 -7 13 -8 13 -1 0 5
-6 15 -14 21 -11 9 -15 8 -20 -6z"/>
<path d="M480 868 c0 -9 5 -20 11 -23 17 -11 20 0 4 21 -13 17 -14 17 -15 2z"/>
<path d="M418 834 c3 -18 0 -24 -12 -24 -10 0 -15 -4 -11 -10 3 -5 12 -7 19
-4 15 6 29 -22 19 -38 -3 -7 -1 -8 5 -4 6 4 19 -5 28 -21 10 -15 26 -37 35
-48 10 -11 19 -24 21 -30 2 -5 13 -10 25 -10 11 0 25 -4 29 -8 5 -4 0 -5 -10
-1 -16 6 -17 5 -5 -15 8 -12 20 -19 26 -16 8 2 13 -3 13 -13 0 -10 15 -32 33
-50 33 -32 55 -43 41 -20 -4 7 -3 8 4 4 7 -4 12 -13 12 -21 0 -18 80 -86 93
-78 6 3 7 2 4 -4 -3 -5 24 -32 61 -60 156 -118 330 -214 457 -252 76 -23 182
-34 191 -19 3 4 9 6 14 3 5 -3 21 0 35 8 25 13 22 14 -71 41 -118 33 -268 88
-348 127 -32 16 -60 29 -62 29 -10 0 -3 -39 9 -43 7 -3 5 -6 -5 -6 -13 -1 -18
7 -18 28 0 25 -9 35 -52 61 -29 18 -75 51 -102 74 -71 59 -93 69 -105 48 -8
-14 -10 -11 -8 12 2 22 -4 32 -30 46 -52 28 -63 41 -63 72 0 17 -4 27 -10 23
-5 -3 -10 -14 -10 -24 0 -10 -8 -25 -17 -32 -15 -13 -16 -11 -10 17 5 26 1 36
-22 58 -15 14 -31 23 -35 19 -4 -4 -4 0 -1 10 5 12 -6 29 -36 59 -24 23 -47
42 -51 40 -3 -1 -4 12 -1 28 2 18 0 30 -7 30 -6 0 -8 -4 -5 -10 3 -5 2 -17 -3
-26 -8 -14 -11 -14 -18 -3 -5 8 -9 25 -9 38 0 15 -8 26 -21 31 -18 7 -20 5
-16 -16z m92 -90 c0 -8 -19 -13 -24 -6 -3 5 1 9 9 9 8 0 15 -2 15 -3z m60 -74
c0 -5 -5 -10 -11 -10 -5 0 -7 5 -4 10 3 6 8 10 11 10 2 0 4 -4 4 -10z m247
-217 c-4 -3 1 -12 11 -19 9 -7 14 -16 10 -20 -10 -9 -38 15 -38 32 0 8 5 14
12 14 6 0 8 -3 5 -7z m330 -217 c-2 -5 -9 -12 -17 -14 -7 -3 -10 0 -6 6 3 6
-2 13 -11 15 -10 3 -6 4 10 4 15 -1 26 -6 24 -11z m300 -132 c-3 -3 -12 -4
-19 -1 -8 3 -5 6 6 6 11 1 17 -2 13 -5z"/>
<path d="M520 820 c0 -6 11 -21 25 -34 13 -13 22 -25 19 -28 -3 -4 11 -18 30
-33 20 -15 33 -32 29 -38 -3 -6 -1 -7 5 -3 7 4 18 -6 27 -25 9 -17 19 -28 22
-25 3 3 -1 16 -10 29 -24 38 -147 168 -147 157z"/>
<path d="M850 790 c0 -5 10 -15 23 -21 22 -12 22 -12 3 10 -21 23 -26 26 -26
11z"/>
<path d="M3087 744 c-49 -47 -58 -64 -31 -64 14 0 14 -2 3 -16 -12 -14 -14
-14 -21 6 -8 21 -8 21 -47 -7 -22 -15 -35 -31 -29 -34 5 -3 -15 -16 -46 -28
-41 -17 -54 -28 -53 -42 1 -10 5 -19 9 -19 4 0 5 -7 1 -16 -5 -13 -3 -15 13
-6 11 6 28 20 39 32 19 21 19 21 -1 14 -20 -8 -20 -6 10 16 13 10 17 10 12 3
-4 -8 -2 -13 7 -13 19 0 217 169 217 186 0 7 -8 18 -18 23 -14 7 -27 0 -65
-35z m53 -4 c0 -5 -4 -10 -10 -10 -5 0 -10 5 -10 10 0 6 5 10 10 10 6 0 10 -4
10 -10z m-33 -33 c-6 -20 -27 -19 -27 2 0 14 5 19 15 14 9 -3 14 -10 12 -16z
m-90 -59 c0 -7 -14 -24 -31 -38 l-31 -25 30 37 c35 44 32 41 32 26z"/>
<path d="M956 641 c2 -3 12 -6 22 -7 9 -1 26 -5 37 -10 18 -7 19 -6 6 9 -8 10
-25 16 -42 15 -15 -1 -26 -4 -23 -7z"/>
<path d="M1052 615 c11 -25 28 -34 28 -15 0 6 -4 10 -10 10 -5 0 -10 7 -10 15
0 8 -4 15 -10 15 -6 0 -5 -10 2 -25z"/>
<path d="M710 614 c0 -6 11 -21 25 -34 14 -13 25 -20 25 -16 0 4 -11 19 -25
34 -14 15 -25 22 -25 16z"/>
<path d="M771 563 c6 -16 92 -83 99 -76 3 3 -1 8 -8 10 -7 3 -23 15 -35 27
-34 34 -61 53 -56 39z"/>
<path d="M1120 562 c0 -4 14 -16 30 -25 29 -18 40 -50 20 -62 -5 -3 -10 -10
-10 -15 0 -12 113 -70 136 -70 28 0 -17 65 -47 66 -49 2 -51 3 -47 29 3 13 1
22 -3 19 -5 -3 -9 0 -9 6 0 13 -49 60 -61 60 -5 0 -9 -4 -9 -8z"/>
<path d="M2770 527 c-66 -28 -104 -49 -78 -45 9 2 17 -1 16 -6 0 -5 6 -12 12
-16 8 -5 7 -9 -5 -13 -9 -4 -13 -3 -10 2 3 5 1 12 -3 15 -11 7 -85 -15 -94
-29 -10 -14 -10 -55 0 -55 22 0 101 33 119 49 11 11 29 21 39 23 10 2 18 10
17 18 -2 11 7 16 28 16 40 2 57 19 43 41 -15 25 -24 25 -84 0z m65 -17 c-3 -5
-11 -10 -16 -10 -6 0 -7 5 -4 10 3 6 11 10 16 10 6 0 7 -4 4 -10z"/>
<path d="M1229 518 c4 -12 14 -24 20 -26 8 -3 7 5 -4 22 -21 32 -27 33 -16 4z"/>
<path d="M1294 484 c14 -15 26 -33 26 -40 0 -8 5 -14 10 -14 6 0 10 4 10 10 0
11 -56 70 -66 70 -4 0 5 -12 20 -26z"/>
<path d="M1236 472 c-3 -5 1 -9 9 -9 8 0 15 4 15 9 0 4 -4 8 -9 8 -6 0 -12 -4
-15 -8z"/>
<path d="M896 455 c3 -7 29 -25 57 -40 29 -15 67 -39 86 -53 29 -22 32 -22 22
-5 -12 23 -172 118 -165 98z"/>
<path d="M3094 455 c-4 -8 -11 -15 -18 -15 -6 0 -23 -11 -38 -24 -14 -14 -29
-22 -32 -19 -3 4 -6 1 -6 -6 0 -7 -4 -9 -10 -6 -6 3 -10 -4 -11 -17 0 -13 -3
-18 -5 -11 -7 16 -54 -5 -54 -24 0 -8 -12 -13 -30 -13 -20 0 -30 -5 -30 -15 0
-9 -9 -15 -25 -15 -26 0 -65 -31 -65 -52 0 -10 -2 -10 -9 0 -7 11 -16 10 -52
-6 -31 -15 -46 -17 -51 -9 -4 6 -10 8 -14 4 -12 -11 -14 -37 -3 -37 5 0 9 -5
9 -10 0 -6 -7 -6 -19 1 -38 24 -72 -21 -38 -50 17 -14 165 43 185 71 7 10 22
18 34 18 16 0 19 5 16 25 -4 17 -1 25 8 25 8 0 14 -9 14 -19 0 -18 8 -15 71
21 45 26 68 45 65 54 -3 8 0 11 10 7 31 -12 80 34 75 70 -1 4 4 7 10 7 6 0 8
-7 5 -16 -4 -10 -1 -14 6 -11 8 2 12 19 11 41 -2 22 1 34 7 31 6 -3 10 -1 10
4 0 16 -20 13 -26 -4z"/>
<path d="M2540 430 c-8 -5 -10 -10 -5 -10 6 0 17 5 25 10 8 5 11 10 5 10 -5 0
-17 -5 -25 -10z"/>
<path d="M2539 406 c-16 -8 -32 -10 -40 -5 -18 11 -32 11 -25 0 3 -4 -23 -11
-57 -15 -34 -3 -75 -11 -92 -16 -25 -8 -20 -9 25 -5 35 3 50 2 40 -4 -21 -13
-165 -40 -233 -44 -36 -3 -62 -9 -68 -18 -5 -8 -9 -9 -9 -3 0 8 -33 10 -114 7
-74 -3 -116 0 -121 6 -8 14 -82 14 -90 1 -3 -5 -19 -3 -40 7 -39 19 -51 14
-36 -15 38 -71 287 -78 611 -16 74 14 171 38 215 52 71 24 80 30 80 51 -1 30
-12 35 -46 17z m-482 -122 c-3 -3 -12 -4 -19 -1 -8 3 -5 6 6 6 11 1 17 -2 13
-5z"/>
<path d="M1322 399 c2 -6 7 -10 11 -10 4 1 14 1 22 1 26 0 16 16 -11 18 -15 1
-24 -3 -22 -9z"/>
<path d="M1510 400 c0 -8 82 -32 89 -25 2 3 -2 6 -10 8 -8 2 -29 9 -46 15 -18
5 -33 7 -33 2z"/>
<path d="M1385 381 l-40 -6 25 -17 c31 -20 153 -58 187 -58 17 0 23 4 20 14
-3 7 -1 18 5 24 8 8 5 9 -11 5 -11 -3 -21 -1 -21 5 0 5 -22 12 -50 16 -27 4
-52 11 -55 16 -3 6 -9 9 -13 9 -4 -1 -25 -5 -47 -8z"/>
<path d="M1614 343 c2 -9 8 -19 15 -21 10 -3 10 0 2 17 -14 25 -20 27 -17 4z"/>
<path d="M1726 351 c5 -5 20 -12 34 -15 24 -7 24 -6 6 8 -21 17 -57 23 -40 7z"/>
<path d="M2268 353 c7 -3 16 -2 19 1 4 3 -2 6 -13 5 -11 0 -14 -3 -6 -6z"/>
<path d="M1103 330 c14 -11 31 -20 39 -20 7 0 0 9 -17 20 -39 26 -55 26 -22 0z"/>
<path d="M1848 339 c-8 -5 20 -9 67 -10 44 0 94 -3 110 -5 21 -3 25 -1 15 5
-20 12 -175 20 -192 10z"/>
<path d="M2173 343 c9 -2 25 -2 35 0 9 3 1 5 -18 5 -19 0 -27 -2 -17 -5z"/>
<path d="M2068 333 c7 -3 16 -2 19 1 4 3 -2 6 -13 5 -11 0 -14 -3 -6 -6z"/>
<path d="M1215 270 c82 -40 284 -109 342 -117 69 -9 48 4 -33 21 -79 16 -217
65 -287 101 -26 14 -55 25 -65 25 -9 0 10 -14 43 -30z"/>
<path d="M1615 290 c3 -5 10 -10 16 -10 5 0 9 5 9 10 0 6 -7 10 -16 10 -8 0
-12 -4 -9 -10z"/>
<path d="M2548 166 c-9 -9 -20 -11 -35 -5 -29 11 -28 2 1 -35 32 -39 58 -30
54 19 -2 40 -3 40 -20 21z"/>
<path d="M2275 139 c-49 -10 -94 -19 -99 -19 -5 0 -7 -3 -4 -6 7 -6 185 21
233 35 l30 9 -35 0 c-19 1 -75 -8 -125 -19z"/>
<path d="M1601 109 c-14 -42 -15 -41 13 -37 13 1 32 -5 43 -14 76 -68 457 -65
738 7 54 13 100 27 103 30 3 3 0 11 -7 18 -20 19 -161 12 -314 -17 -179 -34
-226 -34 -265 -1 -28 23 -90 36 -77 16 3 -5 16 -8 29 -5 15 2 26 -2 30 -11 3
-8 1 -15 -5 -15 -6 0 -7 -5 -4 -10 8 -13 2 -13 -31 4 -15 8 -32 13 -36 9 -5
-3 -12 4 -15 15 -3 11 -11 23 -19 26 -17 7 -18 -6 -2 -22 9 -9 9 -15 0 -24
-10 -10 -15 -10 -22 2 -5 8 -10 23 -10 33 0 10 -7 17 -17 17 -15 0 -15 -2 -4
-9 9 -6 11 -15 6 -27 -9 -22 -12 -30 -14 -44 0 -5 -6 -10 -13 -10 -9 0 -9 3
-1 11 8 8 8 18 1 35 -14 31 -28 31 -28 -1 0 -14 -3 -25 -6 -25 -10 0 -33 27
-29 34 3 3 2 4 -2 1 -11 -8 -32 16 -26 31 3 8 3 14 0 14 -3 0 -10 -14 -16 -31z
m224 -59 c-3 -5 -1 -10 6 -10 7 0 10 -2 7 -5 -7 -8 -38 5 -38 16 0 5 7 9 16 9
8 0 12 -4 9 -10z m75 -10 c0 -5 -2 -10 -4 -10 -3 0 -8 5 -11 10 -3 6 -1 10 4
10 6 0 11 -4 11 -10z"/>
<path d="M1645 130 c3 -5 8 -10 11 -10 2 0 4 5 4 10 0 6 -5 10 -11 10 -5 0 -7
-4 -4 -10z"/>
<path d="M1955 110 c-20 -5 1 -8 64 -8 59 0 89 3 80 9 -17 10 -101 10 -144 -1z"/>
</g>
</svg>
